<?xml version="1.0" standalone="no"?><!DOCTYPE svg PUBLIC "-//W3C//DTD SVG 1.1//EN" "http://www.w3.org/Graphics/SVG/1.1/DTD/svg11.dtd"><svg t="1710581987522" class="icon" viewBox="0 0 1024 1024" version="1.1" xmlns="http://www.w3.org/2000/svg" p-id="1332" xmlns:xlink="http://www.w3.org/1999/xlink" width="64" height="64"><path d="M160.13493547 114.00429227c50.03230507-35.06201813 151.08365547-40.7139424 161.39530773-36.71786347 5.8614976 2.31621973 51.11509973 91.85523947 67.00663573 133.94232213 24.1150976 63.78881493 22.3184448 133.91830827 22.3184448 133.91830827s9.0782272-2.6949792-22.3184448 22.3184448c-37.73734933 30.00497493-62.5630304 14.56424-67.00663573 44.6150592-4.39994347 30.0519104 31.82236693 127.88980693 111.691552 200.85399467C512.9982016 685.92494187 584.73223893 722.9255104 634.2427936 724.53551253c25.15859733 0.82737707 21.7530336-60.33959147 44.639072-89.2563136 6.0525152-7.61230613 91.7373536-4.06702827 178.65234347 44.6172416 56.08482027 31.37374933 83.70044373 74.26310507 89.37529066 89.27923627 11.0167776 29.34023573-82.94292373 142.8546368-142.24010773 166.12052693-52.0188832 20.37989333-129.56966613 15.0379616-215.11151573-9.88377386-111.27022293-32.44017067-391.49457493-194.44782507-473.77712534-463.7263488-71.2133792-202.88532587-30.54528107-271.28911573 0-309.04611307C132.7103296 131.76124693 146.42426987 123.65120427 160.13493547 114.00429227L160.13493547 114.00429227z" fill="#ffffff" p-id="1333"></path></svg>